<svg xmlns="http://www.w3.org/2000/svg" viewBox="0 0 1400 820" role="img" aria-label="GitLab CI and Argo CD Flow">
  <defs>
    <linearGradient id="bg" x1="0" y1="0" x2="1" y2="1"><stop offset="0" stop-color="#07111f"/><stop offset="1" stop-color="#110829"/></linearGradient>
    <marker id="arrow" markerWidth="12" markerHeight="12" refX="10" refY="6" orient="auto"><path d="M2,2 L10,6 L2,10 Z" fill="#58e7ff"/></marker>
    <marker id="arrow2" markerWidth="12" markerHeight="12" refX="10" refY="6" orient="auto"><path d="M2,2 L10,6 L2,10 Z" fill="#b476ff"/></marker>
    <marker id="arrow3" markerWidth="12" markerHeight="12" refX="10" refY="6" orient="auto"><path d="M2,2 L10,6 L2,10 Z" fill="#63ffb3"/></marker>
    <style><![CDATA[
.title{font:800 34px Inter,Segoe UI,Arial;fill:#f6fbff}.sub{font:500 16px Inter,Segoe UI,Arial;fill:#a9bdd8}.label{font:800 18px Inter,Segoe UI,Arial;fill:#ffffff}.small{font:500 13px Inter,Segoe UI,Arial;fill:#c5d3e8}.chip{font:700 12px Inter,Segoe UI,Arial;fill:#07111f}.panel{fill:#10243a;stroke:#345b87;stroke-width:1.4}.core{fill:#09233b;stroke:#58e7ff;stroke-width:2.2}.soft{fill:#151b35;stroke:#8065ff;stroke-width:1.4}.data{fill:#102d29;stroke:#63ffb3;stroke-width:1.4}.warn{fill:#332315;stroke:#ffba66;stroke-width:1.4}.flow{fill:none;stroke:#58e7ff;stroke-width:3;marker-end:url(#arrow)}.dash{fill:none;stroke:#b476ff;stroke-width:3;stroke-dasharray:10 8;marker-end:url(#arrow2)}.metric{fill:none;stroke:#63ffb3;stroke-width:3;stroke-dasharray:4 7;marker-end:url(#arrow3)}.pulse{animation:pulse 2.8s ease-in-out infinite}@keyframes pulse{0%,100%{opacity:.6}50%{opacity:1}}
]]></style>
  </defs>
  <rect width="1400" height="820" fill="url(#bg)"/>
  <text x="64" y="76" class="title">GitLab CI and Argo CD Flow</text>
  <text x="64" y="106" class="sub">Optional local GitLab validates the package; Argo CD assets describe Kubernetes reconciliation.</text>

<rect x="74" y="134" width="148" height="28" rx="14" fill="#58e7ff"/><text x="88" y="153" class="chip">optional GitLab</text>
<rect x="230" y="134" width="84" height="28" rx="14" fill="#58e7ff"/><text x="244" y="153" class="chip">Argo CD</text>
<rect x="326" y="134" width="60" height="28" rx="14" fill="#58e7ff"/><text x="340" y="153" class="chip">Helm</text>
<path d="M330 255 C 370 255, 370 255, 410 255" class="flow"/>
<path d="M670 255 C 710 255, 710 255, 750 255" class="flow"/>
<path d="M1010 255 C 1050 255, 1050 255, 1090 255" class="flow"/>
<path d="M540 340 C 540 340, 540 470, 540 470" class="dash"/>
<path d="M680 545 C 735 545, 735 545, 790 545" class="flow"/>
<path d="M1210 340 C 1070 340, 1070 470, 930 470" class="dash"/>
<rect x="70" y="180" width="260" height="150" rx="20" class="core"/>
<text x="94" y="218" class="label">Repository</text>
<text x="94" y="246" class="small">Code, docs, SVGs</text>
<text x="94" y="270" class="small">Docker/Helm assets</text>
<text x="94" y="294" class="small">OpenAPI specs</text>
<rect x="410" y="170" width="260" height="170" rx="20" class="warn"/>
<text x="434" y="208" class="label">GitLab CI</text>
<text x="434" y="236" class="small">Static preflight</text>
<text x="434" y="260" class="small">Build validation</text>
<text x="434" y="284" class="small">Package checks</text>
<rect x="750" y="170" width="260" height="170" rx="20" class="panel"/>
<text x="774" y="208" class="label">Container Images</text>
<text x="774" y="236" class="small">Frontend shell</text>
<text x="774" y="260" class="small">MFE static bundles</text>
<text x="774" y="284" class="small">Backend services</text>
<rect x="1090" y="170" width="240" height="170" rx="20" class="warn"/>
<text x="1114" y="208" class="label">Argo CD</text>
<text x="1114" y="236" class="small">Project</text>
<text x="1114" y="260" class="small">Application</text>
<text x="1114" y="284" class="small">ApplicationSet</text>
<rect x="410" y="470" width="270" height="150" rx="20" class="soft"/>
<text x="434" y="508" class="label">Helm</text>
<text x="434" y="536" class="small">Chart.yaml</text>
<text x="434" y="560" class="small">values.yaml</text>
<text x="434" y="584" class="small">Kubernetes manifests</text>
<rect x="790" y="470" width="270" height="150" rx="20" class="data"/>
<text x="814" y="508" class="label">Cluster Runtime</text>
<text x="814" y="536" class="small">Ingress / service routes</text>
<text x="814" y="560" class="small">Gateway APIs</text>
<text x="814" y="584" class="small">Observability stack</text>
</svg>