<svg xmlns="http://www.w3.org/2000/svg" viewBox="0 0 1400 820" role="img" aria-label="Messaging and Cache Flow">
  <defs>
    <linearGradient id="bg" x1="0" y1="0" x2="1" y2="1"><stop offset="0" stop-color="#07111f"/><stop offset="1" stop-color="#110829"/></linearGradient>
    <marker id="arrow" markerWidth="12" markerHeight="12" refX="10" refY="6" orient="auto"><path d="M2,2 L10,6 L2,10 Z" fill="#58e7ff"/></marker>
    <marker id="arrow2" markerWidth="12" markerHeight="12" refX="10" refY="6" orient="auto"><path d="M2,2 L10,6 L2,10 Z" fill="#b476ff"/></marker>
    <marker id="arrow3" markerWidth="12" markerHeight="12" refX="10" refY="6" orient="auto"><path d="M2,2 L10,6 L2,10 Z" fill="#63ffb3"/></marker>
    <style><![CDATA[
.title{font:800 34px Inter,Segoe UI,Arial;fill:#f6fbff}.sub{font:500 16px Inter,Segoe UI,Arial;fill:#a9bdd8}.label{font:800 18px Inter,Segoe UI,Arial;fill:#ffffff}.small{font:500 13px Inter,Segoe UI,Arial;fill:#c5d3e8}.chip{font:700 12px Inter,Segoe UI,Arial;fill:#07111f}.panel{fill:#10243a;stroke:#345b87;stroke-width:1.4}.core{fill:#09233b;stroke:#58e7ff;stroke-width:2.2}.soft{fill:#151b35;stroke:#8065ff;stroke-width:1.4}.data{fill:#102d29;stroke:#63ffb3;stroke-width:1.4}.warn{fill:#332315;stroke:#ffba66;stroke-width:1.4}.flow{fill:none;stroke:#58e7ff;stroke-width:3;marker-end:url(#arrow)}.dash{fill:none;stroke:#b476ff;stroke-width:3;stroke-dasharray:10 8;marker-end:url(#arrow2)}.metric{fill:none;stroke:#63ffb3;stroke-width:3;stroke-dasharray:4 7;marker-end:url(#arrow3)}.pulse{animation:pulse 2.8s ease-in-out infinite}@keyframes pulse{0%,100%{opacity:.6}50%{opacity:1}}
]]></style>
  </defs>
  <rect width="1400" height="820" fill="url(#bg)"/>
  <text x="64" y="76" class="title">Messaging and Cache Flow</text>
  <text x="64" y="106" class="sub">MongoDB, RabbitMQ and Redis support service state, events and low-latency runtime views.</text>

<rect x="64" y="124" width="84" height="28" rx="14" fill="#58e7ff"/><text x="78" y="143" class="chip">MongoDB</text>
<rect x="174" y="124" width="92" height="28" rx="14" fill="#58e7ff"/><text x="188" y="143" class="chip">RabbitMQ</text>
<rect x="294" y="124" width="68" height="28" rx="14" fill="#58e7ff"/><text x="308" y="143" class="chip">Redis</text>
<path d="M330 245 C 370 245, 370 245, 410 245" class="flow"/>
<path d="M330 245 C 540 245, 540 245, 750 245" class="dash"/>
<path d="M330 245 C 710 245, 710 245, 1090 245" class="metric"/>
<path d="M880 330 C 710 330, 710 470, 540 470" class="dash"/>
<path d="M880 470 C 880 470, 880 330, 880 330" class="metric"/>
<rect x="60" y="170" width="270" height="150" rx="20" class="soft"/>
<text x="84" y="208" class="label">Gateway/API Services</text>
<text x="84" y="236" class="small">Task, Notification</text>
<text x="84" y="260" class="small">Release, Policy</text>
<text x="84" y="284" class="small">AI Ops, DevSecOps</text>
<rect x="410" y="160" width="260" height="170" rx="20" class="data"/>
<text x="434" y="198" class="label">MongoDB</text>
<text x="434" y="226" class="small">Task data</text>
<text x="434" y="250" class="small">Audit records</text>
<text x="434" y="274" class="small">Service documents</text>
<rect x="750" y="160" width="260" height="170" rx="20" class="data"/>
<text x="774" y="198" class="label">RabbitMQ</text>
<text x="774" y="226" class="small">Async events</text>
<text x="774" y="250" class="small">Notifications</text>
<text x="774" y="274" class="small">Worker fan-out</text>
<rect x="1090" y="160" width="250" height="170" rx="20" class="data"/>
<text x="1114" y="198" class="label">Redis</text>
<text x="1114" y="226" class="small">Cache entries</text>
<text x="1114" y="250" class="small">Runtime snapshots</text>
<text x="1114" y="274" class="small">Fast lookup</text>
<rect x="410" y="470" width="260" height="150" rx="20" class="panel"/>
<text x="434" y="508" class="label">Go event worker</text>
<text x="434" y="536" class="small">Consumes events</text>
<text x="434" y="560" class="small">Normalizes payloads</text>
<text x="434" y="584" class="small">Updates projections</text>
<rect x="750" y="470" width="260" height="150" rx="20" class="panel"/>
<text x="774" y="508" class="label">Go cache service</text>
<text x="774" y="536" class="small">Health endpoint</text>
<text x="774" y="560" class="small">Cache API</text>
<text x="774" y="584" class="small">Redis integration</text>
</svg>