<svg xmlns="http://www.w3.org/2000/svg" width="1200" height="720" viewBox="0 0 1200 720">
    <defs>
        <linearGradient id="bg" x1="0" x2="1">
            <stop offset="0" stop-color="#020617"/>
            <stop offset="1" stop-color="#111827"/>
        </linearGradient>
        <linearGradient id="g" x1="0" x2="1">
            <stop offset="0" stop-color="#22d3ee"/>
            <stop offset="1" stop-color="#8b5cf6"/>
        </linearGradient>
        <filter id="glow">
            <feGaussianBlur stdDeviation="5" result="b"/>
            <feMerge>
                <feMergeNode in="b"/>
                <feMergeNode in="SourceGraphic"/>
            </feMerge>
        </filter>
    </defs>
    <rect width="1200" height="720" fill="url(#bg)"/>
    <g opacity=".22" stroke="#38bdf8">
        <path d="M0 90H1200M0 180H1200M0 270H1200M0 360H1200M0 450H1200M0 540H1200M0 630H1200M100 0V720M250 0V720M400 0V720M550 0V720M700 0V720M850 0V720M1000 0V720M1150 0V720"/>
    </g>
    <text x="60" y="78" fill="#e0f2fe" font-family="Inter,Arial" font-size="42" font-weight="800">NebulaOps v21.1 Home
        Feature Launcher
    </text>
    <text x="60" y="116" fill="#7dd3fc" font-family="Inter,Arial" font-size="18">Quick access to Grafana, ArgoCD,
        Prometheus and internal platform modules
    </text>
    <g filter="url(#glow)">
        <circle cx="600" cy="360" r="86" fill="#0f172a" stroke="url(#g)" stroke-width="4"/>
        <text x="600" y="350" text-anchor="middle" fill="#fff" font-family="Inter,Arial" font-size="28"
              font-weight="900">HOME
        </text>
        <text x="600" y="382" text-anchor="middle" fill="#a5f3fc" font-family="Inter,Arial" font-size="18">COMMAND
            CENTER
        </text>
    </g>
    <g font-family="Inter,Arial" font-weight="800">
        <g>
            <rect x="100" y="190" width="210" height="110" rx="26" fill="#111827" stroke="#f97316"/>
            <text x="205" y="238" text-anchor="middle" fill="#fb923c" font-size="28">Grafana</text>
            <text x="205" y="270" text-anchor="middle" fill="#cbd5e1" font-size="16">localhost:3000</text>
        </g>
        <g>
            <rect x="365" y="190" width="210" height="110" rx="26" fill="#111827" stroke="#fb7185"/>
            <text x="470" y="238" text-anchor="middle" fill="#fb7185" font-size="28">ArgoCD</text>
            <text x="470" y="270" text-anchor="middle" fill="#cbd5e1" font-size="16">localhost:8080</text>
        </g>
        <g>
            <rect x="630" y="190" width="210" height="110" rx="26" fill="#111827" stroke="#f59e0b"/>
            <text x="735" y="238" text-anchor="middle" fill="#f59e0b" font-size="28">Prometheus</text>
            <text x="735" y="270" text-anchor="middle" fill="#cbd5e1" font-size="16">localhost:9090</text>
        </g>
        <g>
            <rect x="895" y="190" width="210" height="110" rx="26" fill="#111827" stroke="#60a5fa"/>
            <text x="1000" y="238" text-anchor="middle" fill="#60a5fa" font-size="28">K8S</text>
            <text x="1000" y="270" text-anchor="middle" fill="#cbd5e1" font-size="16">Visual Cluster</text>
        </g>
        <g>
            <rect x="235" y="465" width="210" height="110" rx="26" fill="#111827" stroke="#c084fc"/>
            <text x="340" y="513" text-anchor="middle" fill="#c084fc" font-size="28">AI OPS</text>
            <text x="340" y="545" text-anchor="middle" fill="#cbd5e1" font-size="16">RCA + Auto Fix</text>
        </g>
        <g>
            <rect x="495" y="465" width="210" height="110" rx="26" fill="#111827" stroke="#f87171"/>
            <text x="600" y="513" text-anchor="middle" fill="#f87171" font-size="28">Security</text>
            <text x="600" y="545" text-anchor="middle" fill="#cbd5e1" font-size="16">DevSecOps</text>
        </g>
        <g>
            <rect x="755" y="465" width="210" height="110" rx="26" fill="#111827" stroke="#2dd4bf"/>
            <text x="860" y="513" text-anchor="middle" fill="#2dd4bf" font-size="28">Helm</text>
            <text x="860" y="545" text-anchor="middle" fill="#cbd5e1" font-size="16">Releases</text>
        </g>
    </g>
    <g stroke="url(#g)" stroke-width="3" stroke-dasharray="8 10" opacity=".8">
        <path d="M310 245L520 330"/>
        <path d="M575 260L585 282"/>
        <path d="M735 300L665 330"/>
        <path d="M895 245L680 335"/>
        <path d="M445 500L540 420"/>
        <path d="M600 465V446"/>
        <path d="M755 505L665 420"/>
    </g>
</svg>