<svg xmlns="http://www.w3.org/2000/svg" viewBox="0 0 1400 820" role="img" aria-label="Runtime Architecture">
  <defs>
    <linearGradient id="bg" x1="0" y1="0" x2="1" y2="1"><stop offset="0" stop-color="#07111f"/><stop offset="1" stop-color="#110829"/></linearGradient>
    <marker id="arrow" markerWidth="12" markerHeight="12" refX="10" refY="6" orient="auto"><path d="M2,2 L10,6 L2,10 Z" fill="#58e7ff"/></marker>
    <marker id="arrow2" markerWidth="12" markerHeight="12" refX="10" refY="6" orient="auto"><path d="M2,2 L10,6 L2,10 Z" fill="#b476ff"/></marker>
    <marker id="arrow3" markerWidth="12" markerHeight="12" refX="10" refY="6" orient="auto"><path d="M2,2 L10,6 L2,10 Z" fill="#63ffb3"/></marker>
    <style><![CDATA[
.title{font:800 34px Inter,Segoe UI,Arial;fill:#f6fbff}.sub{font:500 16px Inter,Segoe UI,Arial;fill:#a9bdd8}.label{font:800 18px Inter,Segoe UI,Arial;fill:#ffffff}.small{font:500 13px Inter,Segoe UI,Arial;fill:#c5d3e8}.chip{font:700 12px Inter,Segoe UI,Arial;fill:#07111f}.panel{fill:#10243a;stroke:#345b87;stroke-width:1.4}.core{fill:#09233b;stroke:#58e7ff;stroke-width:2.2}.soft{fill:#151b35;stroke:#8065ff;stroke-width:1.4}.data{fill:#102d29;stroke:#63ffb3;stroke-width:1.4}.warn{fill:#332315;stroke:#ffba66;stroke-width:1.4}.flow{fill:none;stroke:#58e7ff;stroke-width:3;marker-end:url(#arrow)}.dash{fill:none;stroke:#b476ff;stroke-width:3;stroke-dasharray:10 8;marker-end:url(#arrow2)}.metric{fill:none;stroke:#63ffb3;stroke-width:3;stroke-dasharray:4 7;marker-end:url(#arrow3)}.pulse{animation:pulse 2.8s ease-in-out infinite}@keyframes pulse{0%,100%{opacity:.6}50%{opacity:1}}
]]></style>
  </defs>
  <rect width="1400" height="820" fill="url(#bg)"/>
  <text x="64" y="76" class="title">Runtime Architecture</text>
  <text x="64" y="106" class="sub">Frontend Nginx is the only browser-facing web tier; services communicate on the Docker network.</text>

<rect x="64" y="124" width="68" height="28" rx="14" fill="#58e7ff"/><text x="78" y="143" class="chip">v22.4</text>
<rect x="160" y="124" width="172" height="28" rx="14" fill="#58e7ff"/><text x="174" y="143" class="chip">WSL/Docker Compose</text>
<path d="M320 230 C 350 230, 350 230, 380 230" class="flow"/>
<path d="M680 230 C 720 230, 720 230, 760 230" class="flow"/>
<path d="M680 230 C 880 230, 880 230, 1080 230" class="flow"/>
<path d="M890 330 C 630 330, 630 470, 370 470" class="metric"/>
<path d="M895 330 C 807 330, 807 470, 720 470" class="metric"/>
<path d="M895 330 C 982 330, 982 470, 1070 470" class="dash"/>
<rect x="60" y="160" width="260" height="150" rx="20" class="core"/>
<text x="84" y="198" class="label">Browser</text>
<text x="84" y="226" class="small">http://nebulaops.localhost</text>
<text x="84" y="250" class="small">Angular shell</text>
<text x="84" y="274" class="small">MFE standalone routes</text>
<rect x="380" y="150" width="300" height="170" rx="20" class="panel"/>
<text x="404" y="188" class="label">Frontend Nginx</text>
<text x="404" y="216" class="small">Static shell</text>
<text x="404" y="240" class="small">Static /remotes/**</text>
<text x="404" y="264" class="small">Reverse proxy routes</text>
<rect x="760" y="140" width="270" height="190" rx="20" class="soft"/>
<text x="784" y="178" class="label">Gateway + APIs</text>
<text x="784" y="206" class="small">Gateway service</text>
<text x="784" y="230" class="small">Spring Boot service mesh</text>
<text x="784" y="254" class="small">Go cache/event helpers</text>
<rect x="1080" y="140" width="260" height="190" rx="20" class="soft"/>
<text x="1104" y="178" class="label">Platform UIs</text>
<text x="1104" y="206" class="small">Keycloak</text>
<text x="1104" y="230" class="small">Grafana</text>
<text x="1104" y="254" class="small">Prometheus</text>
<rect x="240" y="470" width="260" height="150" rx="20" class="data"/>
<text x="264" y="508" class="label">Data layer</text>
<text x="264" y="536" class="small">MongoDB</text>
<text x="264" y="560" class="small">Redis</text>
<text x="264" y="584" class="small">RabbitMQ</text>
<rect x="590" y="470" width="260" height="150" rx="20" class="data"/>
<text x="614" y="508" class="label">Observability</text>
<text x="614" y="536" class="small">Prometheus scrape jobs</text>
<text x="614" y="560" class="small">Grafana dashboards</text>
<text x="614" y="584" class="small">Loki / Tempo</text>
<rect x="940" y="470" width="260" height="150" rx="20" class="warn"/>
<text x="964" y="508" class="label">Delivery</text>
<text x="964" y="536" class="small">Helm chart</text>
<text x="964" y="560" class="small">GitLab CI</text>
<text x="964" y="584" class="small">Argo CD manifests</text>
</svg>