<svg xmlns="http://www.w3.org/2000/svg" viewBox="0 0 1400 820" role="img" aria-label="NebulaOps v23.2 Same-Origin Runtime">
  <defs>
    <linearGradient id="bg" x1="0" y1="0" x2="1" y2="1"><stop offset="0" stop-color="#07111f"/><stop offset="1" stop-color="#110829"/></linearGradient>
    <marker id="arrow" markerWidth="12" markerHeight="12" refX="10" refY="6" orient="auto"><path d="M2,2 L10,6 L2,10 Z" fill="#58e7ff"/></marker>
    <marker id="arrow2" markerWidth="12" markerHeight="12" refX="10" refY="6" orient="auto"><path d="M2,2 L10,6 L2,10 Z" fill="#b476ff"/></marker>
    <marker id="arrow3" markerWidth="12" markerHeight="12" refX="10" refY="6" orient="auto"><path d="M2,2 L10,6 L2,10 Z" fill="#63ffb3"/></marker>
    <style><![CDATA[
.title{font:800 34px Inter,Segoe UI,Arial;fill:#f6fbff}.sub{font:500 16px Inter,Segoe UI,Arial;fill:#a9bdd8}.label{font:800 18px Inter,Segoe UI,Arial;fill:#ffffff}.small{font:500 13px Inter,Segoe UI,Arial;fill:#c5d3e8}.chip{font:700 12px Inter,Segoe UI,Arial;fill:#07111f}.panel{fill:#10243a;stroke:#345b87;stroke-width:1.4}.core{fill:#09233b;stroke:#58e7ff;stroke-width:2.2}.soft{fill:#151b35;stroke:#8065ff;stroke-width:1.4}.data{fill:#102d29;stroke:#63ffb3;stroke-width:1.4}.warn{fill:#332315;stroke:#ffba66;stroke-width:1.4}.flow{fill:none;stroke:#58e7ff;stroke-width:3;marker-end:url(#arrow)}.dash{fill:none;stroke:#b476ff;stroke-width:3;stroke-dasharray:10 8;marker-end:url(#arrow2)}.metric{fill:none;stroke:#63ffb3;stroke-width:3;stroke-dasharray:4 7;marker-end:url(#arrow3)}.pulse{animation:pulse 2.8s ease-in-out infinite}@keyframes pulse{0%,100%{opacity:.6}50%{opacity:1}}
]]></style>
  </defs>
  <rect width="1400" height="820" fill="url(#bg)"/>
  <text x="64" y="76" class="title">NebulaOps v23.2 Same-Origin Runtime</text>
  <text x="64" y="106" class="sub">Browser entry: http://nebulaops.localhost · static MFE bundles · proxied API/platform routes</text>

<rect x="64" y="124" width="116" height="28" rx="14" fill="#58e7ff"/><text x="78" y="143" class="chip">same-origin</text>
<rect x="200" y="124" width="180" height="28" rx="14" fill="#58e7ff"/><text x="214" y="143" class="chip">no public MFE ports</text>
<rect x="392" y="124" width="132" height="28" rx="14" fill="#58e7ff"/><text x="406" y="143" class="chip">reverse proxy</text>
<path d="M320 230 C 355 230, 355 230, 390 230" class="flow"/>
<path d="M700 230 C 740 230, 740 230, 780 230" class="flow"/>
<path d="M700 230 C 890 230, 890 230, 1080 230" class="flow"/>
<path d="M540 320 C 400 320, 400 430, 260 430" class="dash"/>
<path d="M910 300 C 775 300, 775 430, 640 430" class="metric"/>
<path d="M1010 300 C 1015 300, 1015 430, 1020 430" class="dash"/>
<rect x="60" y="160" width="260" height="140" rx="20" class="core"/>
<text x="84" y="198" class="label">Browser</text>
<text x="84" y="226" class="small">Shell UI</text>
<text x="84" y="250" class="small">Standalone MFE links</text>
<text x="84" y="274" class="small">Keycloak redirects</text>
<rect x="390" y="140" width="310" height="180" rx="20" class="panel"/>
<text x="414" y="178" class="label">Frontend Nginx</text>
<text x="414" y="206" class="small">Serves Angular shell</text>
<text x="414" y="230" class="small">Serves /remotes/** assets</text>
<text x="414" y="254" class="small">Proxies /api, /keycloak, /grafana</text>
<rect x="780" y="150" width="260" height="150" rx="20" class="soft"/>
<text x="804" y="188" class="label">Gateway</text>
<text x="804" y="216" class="small">/api/**</text>
<text x="804" y="240" class="small">Spring Boot services</text>
<text x="804" y="264" class="small">Go helpers</text>
<rect x="1080" y="150" width="260" height="150" rx="20" class="soft"/>
<text x="1104" y="188" class="label">Identity / Tools</text>
<text x="1104" y="216" class="small">Keycloak</text>
<text x="1104" y="240" class="small">Grafana</text>
<text x="1104" y="264" class="small">Prometheus</text>
<rect x="120" y="430" width="280" height="150" rx="20" class="panel"/>
<text x="144" y="468" class="label">Static MFE bundle set</text>
<text x="144" y="496" class="small">Docker, OpenLens, Tasks</text>
<text x="144" y="520" class="small">Infra, Release, Policy</text>
<text x="144" y="544" class="small">AI Ops, FinOps, Notifications</text>
<rect x="500" y="430" width="280" height="150" rx="20" class="data"/>
<text x="524" y="468" class="label">Data and messaging</text>
<text x="524" y="496" class="small">MongoDB</text>
<text x="524" y="520" class="small">RabbitMQ</text>
<text x="524" y="544" class="small">Redis</text>
<rect x="880" y="430" width="280" height="150" rx="20" class="warn"/>
<text x="904" y="468" class="label">Delivery assets</text>
<text x="904" y="496" class="small">Helm</text>
<text x="904" y="520" class="small">GitLab CI</text>
<text x="904" y="544" class="small">Argo CD</text>
<circle cx="1180" cy="116" r="10" fill="#63ffb3" class="pulse"/><text x="1200" y="121" class="small">validated preflight assets</text>
</svg>