<svg height="760" viewBox="0 0 1400 760" width="1400" xmlns="http://www.w3.org/2000/svg">
    <defs>
        <linearGradient id="bg" x1="0" x2="1">
            <stop stop-color="#020617"/>
            <stop offset="1" stop-color="#172554"/>
        </linearGradient>
        <filter id="glow">
            <feGaussianBlur result="b" stdDeviation="5"/>
            <feMerge>
                <feMergeNode in="b"/>
                <feMergeNode in="SourceGraphic"/>
            </feMerge>
        </filter>
    </defs>
    <rect fill="url(#bg)" height="760" width="1400"/>
    <circle cx="210" cy="175" fill="#0ea5e9" opacity=".12" r="170"/>
    <circle cx="1130" cy="185" fill="#f97316" opacity=".10" r="210"/>
    <text fill="#e0f2fe" font-family="Inter,Arial" font-size="44" font-weight="900" x="64" y="82">NebulaOps v20.2 ·
        INFRA Console Hub
    </text>
    <text fill="#7dd3fc" font-family="Inter,Arial" font-size="19" x="64" y="124">One tab to open Grafana, Redis,
        MongoDB, RabbitMQ, Prometheus and internal platform features
    </text>
    <g filter="url(#glow)" font-family="Inter,Arial">
        <rect fill="#111827" height="130" rx="28" stroke="#fb923c" width="285" x="70" y="180"/>
        <text fill="#fff" font-size="28" font-weight="800" x="105" y="235">Grafana</text>
        <text fill="#fed7aa" font-size="16" x="105" y="275">localhost:3000</text>
        <rect fill="#111827" height="130" rx="28" stroke="#ef4444" width="285" x="395" y="180"/>
        <text fill="#fff" font-size="28" font-weight="800" x="430" y="235">Redis Commander</text>
        <text fill="#fecaca" font-size="16" x="430" y="275">localhost:8089</text>
        <rect fill="#111827" height="130" rx="28" stroke="#22c55e" width="285" x="720" y="180"/>
        <text fill="#fff" font-size="28" font-weight="800" x="755" y="235">Mongo Express</text>
        <text fill="#bbf7d0" font-size="16" x="755" y="275">localhost:8088</text>
        <rect fill="#111827" height="130" rx="28" stroke="#a78bfa" width="285" x="1045" y="180"/>
        <text fill="#fff" font-size="28" font-weight="800" x="1080" y="235">RabbitMQ</text>
        <text fill="#ddd6fe" font-size="16" x="1080" y="275">localhost:15672</text>
        <rect fill="#111827" height="130" rx="28" stroke="#facc15" width="285" x="230" y="355"/>
        <text fill="#fff" font-size="28" font-weight="800" x="265" y="410">Prometheus</text>
        <text fill="#fef3c7" font-size="16" x="265" y="450">localhost:9090</text>
        <rect fill="#111827" height="130" rx="28" stroke="#38bdf8" width="285" x="560" y="355"/>
        <text fill="#fff" font-size="28" font-weight="800" x="595" y="410">Gateway API</text>
        <text fill="#bae6fd" font-size="16" x="595" y="450">localhost:8080</text>
        <rect fill="#111827" height="130" rx="28" stroke="#67e8f9" width="285" x="890" y="355"/>
        <text fill="#fff" font-size="28" font-weight="800" x="925" y="410">Pipeline Engine</text>
        <text fill="#cffafe" font-size="16" x="925" y="450">localhost:8087</text>
    </g>
    <g font-family="Inter,Arial" opacity=".95">
        <rect fill="#020617" height="92" rx="30" stroke="#334155" width="1100" x="150" y="565"/>
        <text fill="#e0f2fe" font-size="24" font-weight="900" x="190" y="620">Internal shortcuts:</text>
        <text fill="#bae6fd" font-size="21" x="440" y="620">Kubernetes · CI/CD Designer · DevSecOps · Observability · AI
            OPS · FinOps · Backups
        </text>
    </g>
</svg>
